<svg
   version="1.1"
   id="svg1"
   width="844.45331"
   height="960"
   viewBox="0 0 844.45331 960"
   xmlns="http://www.w3.org/2000/svg"
   xmlns:svg="http://www.w3.org/2000/svg">
  <g
     id="g1"
>
    <g
       id="group-R5">
      <path
         id="path2"
         d="m 5576.51,3444.8 c -105.76,0 -185.65,-14.08 -239.69,-42.24 -54.03,-28.17 -81.04,-89.39 -81.04,-183.65 v -741.49 c 0,-71.27 -11.79,-136.22 -35.35,-194.85 -23.57,-58.62 -56.62,-109.79 -99.15,-153.47 -42.54,-43.69 -93.12,-77.31 -151.74,-100.88 -58.63,-23.56 -123.02,-35.35 -193.14,-35.35 h -265.56 v 320.73 h 265.56 c 60.92,0 102.6,12.37 125.03,37.08 22.4,24.72 33.62,67.54 33.62,128.47 v 740.91 c 0,51.73 9.47,100.01 28.45,144.85 18.96,44.84 43.1,84.2 72.42,118.12 29.31,33.62 63.22,60.64 101.74,80.76 38.5,20.12 79.04,33.62 121.57,40.52 -85.07,16.1 -160.37,57.77 -225.9,125.02 -65.53,67.25 -98.28,154.91 -98.28,262.68 v 734.3 c 0,61.79 -11.22,104.04 -33.62,126.46 -22.43,22.42 -64.11,33.62 -125.03,33.62 h -265.56 v 320.74 h 265.56 c 70.12,0 134.51,-11.78 193.13,-35.35 58.62,-23.57 109.21,-56.62 151.75,-99.15 42.53,-42.54 75.58,-93.12 99.15,-151.75 23.56,-58.63 35.35,-123.58 35.35,-194.85 v -734.59 c 0,-96.57 27.01,-158.36 81.04,-185.38 54.04,-27.01 133.93,-40.52 239.69,-40.52 z m -1645.05,417.31 c -42.54,20.69 -85.94,36.5 -130.2,47.42 -44.26,10.92 -95.13,16.38 -152.6,16.38 -79.33,0 -153.77,-11.78 -223.32,-35.35 -69.55,-23.57 -129.61,-58.91 -180.19,-106.05 -50.58,-47.13 -89.96,-106.05 -118.12,-176.75 -28.17,-70.7 -42.25,-154.33 -42.25,-250.89 v -400.06 h 360.4 v -320.75 h -1081.2 v 320.75 h 363.85 v 963.93 h -363.85 v 322.45 h 720.8 v -403.5 c 58.63,160.94 145.14,274.75 259.52,341.43 114.39,66.67 250.32,100.01 407.82,100.01 49.42,0 101.16,-5.17 155.19,-15.52 54.03,-10.35 106.92,-28.74 158.64,-55.18 z M 1824.25,4886.39 H 1558.7 c -60.94,0 -102.61,-12.36 -125.02,-37.07 -22.42,-24.72 -33.63,-68.11 -33.63,-129.91 v -734.3 c 0,-107.77 -33.05,-195.43 -99.15,-262.68 -66.1,-67.25 -141.12,-108.92 -225.04,-125.02 42.54,-6.89 83.07,-20.41 121.58,-40.53 38.51,-20.11 72.42,-47.12 101.73,-80.75 29.32,-33.91 53.46,-73.29 72.44,-118.12 18.96,-44.84 28.44,-93.12 28.44,-144.85 v -734.01 c 0,-60.93 11.21,-103.75 33.64,-128.47 22.4,-24.71 64.07,-37.08 125.01,-37.08 h 265.55 V 1992.87 H 1558.7 c -70.13,0 -134.8,11.79 -194,35.35 -59.2,23.57 -109.78,57.19 -151.75,100.88 -41.95,43.68 -74.72,94.84 -98.29,153.47 -23.57,58.62 -35.35,123.58 -35.35,194.85 v 734.59 c 0,94.27 -27.01,155.48 -81.037,183.65 -54.031,28.17 -134.5,42.25 -241.414,42.25 v 320.73 c 106.914,0 187.383,13.51 241.414,40.53 54.027,27.01 81.037,88.8 81.037,185.37 v 734.59 c 0,71.27 11.78,136.22 35.35,194.85 23.57,58.63 56.34,109.79 98.29,153.48 41.97,43.67 92.55,77.88 151.75,102.59 59.2,24.72 123.87,37.08 194,37.08 h 265.55 z m 4326.28,647.45 -2801.02,1617.17 c -113.12,65.32 -252.52,65.32 -365.66,0 L 182.828,5533.84 C 69.7031,5468.52 0,5347.81 0,5217.17 V 1982.83 C 0,1852.2 69.7031,1731.48 182.828,1666.16 L 2983.85,48.9883 c 113.14,-65.3164 252.54,-65.3164 365.66,0 L 6150.53,1666.16 c 113.14,65.32 182.83,186.04 182.83,316.67 v 3234.34 c 0,130.64 -69.69,251.35 -182.83,316.67"
         style="fill:#ef381f;fill-opacity:1;fill-rule:nonzero;stroke:none"
         transform="matrix(0.13333333,0,0,-0.13333333,0,960)" />
    </g>
  </g>
</svg>
